<svg width="72" height="96" viewBox="0 0 72 96" fill="none" xmlns="http://www.w3.org/2000/svg">
<path fill-rule="evenodd" clip-rule="evenodd" d="M2.46323 20.5731C2.57611 21.2342 3.88699 19.6495 2.861 22.1182C0.885774 23.5929 2.62216 22.7636 2.46323 20.5731ZM2.47298 20.7013C2.46704 20.6207 2.46333 20.5418 2.45478 20.4597C2.4533 20.5541 2.46073 20.6315 2.47298 20.7013ZM0.817212 27.6854C-0.46192 29.4314 0.228762 29.8034 0.0939053 30.9912C0.556745 29.4741 0.640485 28.5632 0.817212 27.6854ZM41.0328 0.074707C39.6528 0.1988 38.2781 0.272399 36.9206 0.459097L37.5185 0.546298C38.5174 0.155386 39.9734 0.332023 41.0328 0.074707ZM38.7632 1.92833L38.8011 1.77083L38.2439 2.03227L38.7632 1.92833ZM37.2268 1.30278C38.0148 1.45389 38.9304 1.56978 38.8011 1.77083C39.6636 1.56904 39.8595 1.3829 37.2268 1.30278ZM28.9996 52.4477C28.486 51.841 28.1816 51.1103 27.8414 50.3821C28.1668 51.662 28.8336 52.7609 29.4541 53.8789L28.9996 52.4477ZM45.0359 51.5086C45.5685 51.0639 46.0516 50.6145 46.4825 50.1773C45.281 50.4913 44.0593 50.4982 42.8283 50.378C41.3512 50.4007 43.1076 51.1909 45.0359 51.5086ZM50.7559 48.2675C51.6365 46.971 52.278 45.5512 52.5029 44.0832C52.3054 45.1296 51.7744 46.0334 51.2731 46.9865C48.5127 48.8431 51.0142 45.8842 51.2716 44.7592C48.3028 48.751 50.8639 47.1529 50.7559 48.2675ZM53.6831 40.1344C53.8609 37.2935 53.1585 38.1914 52.9228 39.2758C53.1978 39.4289 53.4167 41.2784 53.6831 40.1344ZM36.7508 60.5534C34.6254 59.4903 32.6793 57.8856 31.0785 55.9206C31.9278 57.2488 32.844 58.5389 34.0288 59.5531C32.0246 58.8277 29.3472 54.3663 28.5654 54.1843C32.0206 60.7914 42.5823 65.7706 48.1135 63.2995C45.5539 63.4011 42.303 63.3562 39.4279 62.2211C38.3339 61.6198 36.8826 60.4342 36.8379 60.0256C36.7833 60.1758 36.695 60.3274 36.7508 60.5534ZM36.8989 59.9317C36.8502 59.9817 36.8298 60.0483 36.8391 60.1312C36.8636 60.065 36.884 59.9987 36.8989 59.9317ZM26.4975 53.6503C27.4682 55.0591 28.2383 56.5845 29.4782 57.6857C28.5862 55.8262 27.9238 55.0574 26.7046 52.5437L26.4975 53.6503ZM68.5955 34.0976C68.6203 32.6491 68.9727 33.3385 69.1098 32.9819C68.8436 32.8185 68.1451 31.708 67.719 29.5779C68.0275 29.0776 68.5434 30.8757 68.9626 30.9493C68.6927 29.2556 68.2283 27.9641 68.2096 26.6647C66.9849 23.9307 67.7764 27.0293 66.7825 25.4912C65.4786 21.1478 67.8642 24.4828 68.0252 22.5096C70.0015 25.5676 71.1288 30.3064 71.6454 32.2696C71.2508 29.876 70.6131 27.5578 69.8345 25.3146C70.4352 25.5842 68.8682 20.39 70.6152 23.8299C68.7487 16.4973 62.6292 9.6457 56.9985 6.43084C57.687 7.10385 58.5577 7.94995 58.2449 8.08243C55.4453 6.30134 55.9371 6.16309 55.5367 5.4107C53.2552 4.41964 53.1064 5.49064 51.5952 5.41219C47.2951 2.97692 46.4666 3.23572 42.5097 1.70953L42.6912 2.60799C39.8414 1.59475 39.3721 2.99257 36.2938 2.61153C36.1066 2.45539 37.2803 2.04622 38.246 1.89641C35.4919 2.28434 35.6209 1.31675 32.9264 2.00299C33.5905 1.5055 34.2929 1.17626 35.0008 0.753119C32.7554 0.898826 29.6399 2.14851 30.6015 1.01193C26.9389 2.75761 20.4334 5.2078 16.7825 8.86388L16.6678 8.04442C14.995 10.1892 9.37302 14.4501 8.92501 17.2279L8.47787 17.3395C7.60732 18.9135 7.04434 20.6976 6.35401 22.317C5.21532 24.3889 4.68514 23.1143 4.84721 23.439C2.60803 28.2883 1.49586 32.3625 0.534938 35.7039C1.21934 36.7973 0.551337 42.2842 0.810233 46.6757C-0.314677 68.3642 15.0625 89.4229 31.8707 94.2844C34.3337 95.2266 37.9982 95.1901 41.1141 95.287C37.4373 94.1634 36.9614 94.692 33.3803 93.3578C30.7967 92.0591 30.2303 90.5744 28.4005 88.8792L29.1246 90.2459C25.5359 88.8893 27.0373 88.5668 24.1179 87.5791L24.8913 86.5004C23.728 86.4067 21.81 84.4061 21.2856 83.2995L20.0131 83.353C18.4845 81.3377 17.6698 79.8864 17.7289 78.7612L17.3179 79.543C16.8521 78.6891 11.6925 71.9875 14.3695 73.5465C13.8721 73.0613 13.2109 72.7568 12.4941 71.3661L13.0393 70.7013C11.7512 68.9308 10.6687 66.6619 10.7507 65.9066C11.4377 66.8976 11.9144 67.0829 12.3866 67.2519C9.13366 58.6324 8.95118 66.7769 6.4873 58.4791L7.00893 58.4327C6.6089 57.7912 6.3664 57.093 6.04539 56.4081L6.27219 53.9937C3.93025 51.1019 5.61675 41.6973 5.95485 36.5396C6.18915 34.4421 7.90966 32.2094 9.21845 28.7083L8.42082 28.5615C9.94507 25.7221 17.1227 17.1589 20.447 17.5994C22.0576 15.4388 20.1277 17.5916 19.8125 17.0473C23.35 13.1378 24.4621 14.2854 26.8493 13.5818C29.4241 11.9496 24.6394 14.2183 25.8604 12.9591C30.3105 11.7454 29.0145 10.1995 34.8206 9.58272C35.433 9.955 33.3991 10.1575 32.8887 10.6409C36.597 8.70345 44.6231 9.14374 49.8358 11.716C55.8857 14.7359 62.6821 23.6609 62.9499 32.0583L63.2552 32.1458C63.1006 35.4842 63.7333 39.3445 62.637 42.8907L63.3836 41.2119C63.4706 43.7634 62.6841 45.0008 61.9755 47.1926L60.6986 47.874C59.654 50.0406 60.7995 49.2494 60.0523 50.9726C58.4212 52.5222 55.1022 55.8193 54.0408 56.1207C53.2646 56.1021 54.5654 55.1429 54.7358 54.7678C52.5528 56.3686 52.9837 57.1713 49.6449 58.1429L49.5469 57.9121C41.3112 62.0498 29.8726 53.8504 30.0232 42.6613C29.9347 43.3714 29.7728 43.194 29.5904 43.4815C29.1655 37.7244 32.0799 31.9426 36.9944 29.5816C41.8014 27.0401 47.437 28.0832 50.881 31.5107C48.9897 28.8646 45.225 26.0597 40.7625 26.322C36.3922 26.3956 32.3034 29.3625 30.9387 32.5828C28.6992 34.0887 28.4395 38.3872 27.4637 39.1737C26.1512 49.4782 29.9333 53.9297 36.3314 59.1668C36.841 59.534 36.9072 59.7433 36.8658 59.932C36.8679 59.9298 36.869 59.9274 36.871 59.9253C44.419 62.9364 52.2166 62.2065 58.7468 56.6153C60.4082 55.2329 62.2234 52.882 62.748 52.8494C61.958 54.1172 62.8829 53.4591 62.2757 54.5796C63.9321 51.7274 61.5568 53.4183 63.9872 49.6547L64.8853 50.975C64.5516 48.6087 67.6377 45.734 67.3244 41.9907C68.0325 40.8458 68.1137 43.2224 67.3628 45.8564C68.4046 42.9345 67.6377 42.4649 67.9053 40.0541C68.1949 40.8642 68.5744 41.7254 68.7694 42.5808C68.0903 39.7572 69.4659 37.8256 69.8061 36.1848C69.472 36.0257 68.7588 37.433 68.5955 34.0976Z" fill="#CDCDCD"/>
</svg>
