<svg width="47" height="44" viewBox="0 0 47 44" fill="none" xmlns="http://www.w3.org/2000/svg">
<g clip-path="url(#clip0_863_143)">
<path d="M23.3541 0.956299C10.4086 0.956299 0.339844 10.2252 0.339844 22.1424C0.339844 36.0458 14.0046 42.0044 16.1622 42.0044C17.6005 42.0044 17.6005 41.3424 17.6005 40.6803V37.37C12.5662 38.6941 10.4086 36.0458 9.68939 34.0596C9.68939 34.0596 9.68939 33.3976 8.251 32.0734C7.5318 31.4114 4.65502 30.0872 7.5318 30.0872C9.68939 30.0872 11.1278 32.7355 11.1278 32.7355C13.2854 35.3838 16.1622 34.7217 17.6005 34.0596C17.6005 32.7355 19.0389 31.4114 19.0389 31.4114C13.2854 30.7493 8.9702 28.7631 8.9702 21.4804C8.9702 18.8321 9.68939 16.8459 11.1278 15.5218C11.1278 15.5218 9.68939 12.8735 11.1278 9.56316C11.1278 9.56316 14.7238 9.56316 17.6005 12.2114C19.7581 10.8873 26.9501 10.8873 29.1077 12.2114C31.9845 9.56316 35.5804 9.56316 35.5804 9.56316C37.0188 14.1976 35.5804 15.5218 35.5804 15.5218C37.0188 16.8459 37.738 18.8321 37.738 21.4804C37.738 28.7631 32.7037 30.7493 27.6693 31.4114C28.3885 32.0734 29.1077 33.3976 29.1077 35.3838V40.6803C29.1077 41.3424 29.1077 42.0044 30.5461 42.0044C32.7037 42.0044 46.3684 36.0458 46.3684 22.1424C46.3684 10.2252 36.2996 0.956299 23.3541 0.956299Z" fill="#434343"/>
</g>
<defs>
<clipPath id="clip0_863_143">
<rect width="46.0285" height="42.3723" fill="white" transform="translate(0.339844 0.956299)"/>
</clipPath>
</defs>
</svg>
