<svg width="47" height="48" viewBox="0 0 47 48" fill="none" xmlns="http://www.w3.org/2000/svg">
<path fill-rule="evenodd" clip-rule="evenodd" d="M41.0656 39.5912C44.7569 35.4478 46.9999 29.9858 46.9999 23.9999C46.9999 11.05 36.5019 0.552002 23.5519 0.552002C10.602 0.552002 0.104004 11.05 0.104004 23.9999C0.104004 29.8881 2.27437 35.2694 5.85876 39.3874C6.73573 37.7406 8.52202 36.9735 11.9099 35.5187C13.3425 34.9035 15.0615 34.1653 17.1193 33.1856C20.2394 31.7001 18.8436 28.8786 18.0184 27.7575C17.1138 26.5285 17.1177 25.1675 17.1192 24.6548C17.1192 24.6356 17.1193 24.6176 17.1193 24.6008C16.2736 24.6008 16.1041 24.1998 16.1041 22.879C16.1041 22.6473 15.9248 22.3774 15.7334 22.0891C15.3332 21.4867 14.8798 20.804 15.8972 20.2218C15.9694 20.1805 15.906 19.8304 15.8067 19.2817C15.3423 16.7151 14.0911 9.80129 22.241 9.80128C25.8813 9.80128 27.9415 10.6735 29.1693 13.6549C32.26 14.3977 30.4771 20.0038 30.4771 20.0038C31.6917 20.0038 31.4441 20.7865 31.1454 21.7307C31.0397 22.0646 30.9277 22.4188 30.8717 22.7656C30.8717 22.7656 30.8087 24.465 29.9423 24.461C29.5722 24.4593 29.5327 24.9721 29.4777 25.6852C29.404 26.6419 29.3024 27.9592 28.3377 28.8786C27.1929 29.9695 27.611 34.3528 35.1246 35.7821C37.5719 36.2477 39.7131 37.5965 41.0656 39.5912Z" fill="#E3E3E3"/>
<path d="M18.0184 27.7575C18.8436 28.8786 20.2394 31.7001 17.1193 33.1856C15.0615 34.1653 13.3425 34.9035 11.9099 35.5187C8.52202 36.9735 6.73573 37.7406 5.85876 39.3874C6.91598 40.602 8.09622 41.7067 9.38006 42.6821C13.3165 45.6728 18.2269 47.4479 23.5519 47.4479C28.8781 47.4479 33.7895 45.6721 37.7263 42.6802C38.937 41.7601 40.0555 40.7251 41.0656 39.5912C39.7131 37.5965 37.5719 36.2477 35.1246 35.7821C27.611 34.3528 27.1929 29.9695 28.3377 28.8786C29.3024 27.9592 29.404 26.6419 29.4777 25.6852C29.5327 24.9721 29.5722 24.4593 29.9423 24.461C30.8087 24.465 30.8717 22.7656 30.8717 22.7656C30.9277 22.4188 31.0397 22.0646 31.1454 21.7307C31.4441 20.7865 31.6917 20.0038 30.4771 20.0038C30.4771 20.0038 32.26 14.3977 29.1693 13.6549C27.9415 10.6735 25.8813 9.80128 22.241 9.80128C14.0911 9.80129 15.3423 16.7151 15.8067 19.2817C15.906 19.8304 15.9694 20.1805 15.8972 20.2218C14.8798 20.804 15.3332 21.4867 15.7334 22.0891C15.9248 22.3774 16.1041 22.6473 16.1041 22.879C16.1041 24.1998 16.2736 24.6008 17.1193 24.6008L17.1192 24.6548C17.1177 25.1675 17.1138 26.5285 18.0184 27.7575Z" fill="white"/>
</svg>
