<svg width="101" height="106" viewBox="0 0 101 106" fill="none" xmlns="http://www.w3.org/2000/svg">
<path d="M82.9233 0C77.8342 0 73.7406 4.21718 73.7415 9.42222C73.7406 14.6273 77.8342 18.8444 82.9233 18.8444C88.0124 18.8444 92.1777 14.6273 92.1768 9.42222C92.1777 4.21718 88.0124 0 82.9233 0ZM55.593 9.42222C51.0066 9.76904 46.6082 10.9425 42.5376 12.6611L50.7869 27.0889C52.8924 26.4058 55.081 26.0308 57.3864 25.9111C57.8376 25.8878 58.2924 25.9111 58.7493 25.9111C71.3909 25.9111 81.9406 34.9888 84.5732 47.1111H101C99.8343 38.2989 96.05 30.3244 90.527 23.9972C88.2587 25.2435 85.6768 25.9111 82.9233 25.9111C74.278 25.9111 67.1809 18.9742 66.7834 10.2319C64.1815 9.72349 61.4943 9.42222 58.7493 9.42222C58.198 9.42222 57.6457 9.40102 57.0994 9.42222C56.9216 9.42911 56.7745 9.41291 56.5973 9.42222C56.4303 9.43098 56.2617 9.41168 56.0952 9.42222C55.9338 9.43253 55.754 9.40997 55.593 9.42222ZM32.6385 18.55C26.0237 23.8176 20.9787 31.0704 18.2919 39.382C22.5359 42.3534 25.3217 47.3462 25.3217 53C25.3217 58.6538 22.5359 63.6466 18.2919 66.6181C20.9778 74.9317 26.0214 82.1876 32.6385 87.45L40.8161 72.9486C35.5562 67.9972 32.2798 60.8806 32.2798 53C32.2798 45.1223 35.5625 38.0151 40.8161 33.0514L32.6385 18.55ZM9.25355 43.5778C4.16446 43.5778 -0.00087728 47.795 1.38594e-07 53C-0.00087728 58.205 4.16446 62.4222 9.25355 62.4222C14.3426 62.4222 18.4362 58.205 18.4354 53C18.4362 47.795 14.3426 43.5778 9.25355 43.5778ZM84.5732 58.8889C81.9406 71.0112 71.3909 80.0889 58.7493 80.0889C55.9506 80.0889 53.3132 79.6567 50.7869 78.8375L42.5376 93.2653C47.5363 95.3759 53.0068 96.5778 58.7493 96.5778C61.4943 96.5778 64.1815 96.2765 66.7834 95.7681C67.1842 87.3927 73.7636 80.6181 81.919 80.0889C82.2613 80.0668 82.5756 80.0889 82.9233 80.0889C85.6768 80.0889 88.2587 80.7565 90.527 82.0028C96.05 75.6757 99.8343 67.7011 101 58.8889H84.5732ZM82.9233 87.1556C77.8342 87.1556 73.7406 91.3727 73.7415 96.5778C73.7406 101.783 77.8342 106 82.9233 106C88.0124 106 92.1777 101.783 92.1768 96.5778C92.1777 91.3727 88.0124 87.1556 82.9233 87.1556Z" fill="#CDCDCD"/>
</svg>
