<svg width="47" height="43" viewBox="0 0 47 43" fill="none" xmlns="http://www.w3.org/2000/svg">
<path d="M28.908 4.15869H17.1411C6.39303 4.15869 3.83594 6.51267 3.83594 16.3885V27.2207C3.83594 37.1148 6.37315 39.4689 17.121 39.4689H28.8879C39.636 39.4689 42.1931 37.1332 42.1931 27.239V16.4069C42.1931 6.51267 39.6558 4.15869 28.908 4.15869ZM34.8013 29.354H32.0044C30.9457 29.354 30.626 28.5631 28.7282 26.816C27.0699 25.3448 26.3707 25.1609 25.9512 25.1609C25.3719 25.1609 25.212 25.308 25.212 26.0436V28.3609C25.212 28.9862 24.9923 29.354 23.2143 29.354C21.489 29.2472 19.8159 28.7648 18.3328 27.9462C16.8497 27.1277 15.599 25.9965 14.6838 24.6459C12.5111 22.1564 10.9993 19.2345 10.2688 16.1126C10.2688 15.7264 10.4286 15.377 11.2277 15.377H14.0245C14.7437 15.377 15.0035 15.6713 15.2831 16.3518C16.6416 20.0299 18.9591 23.2298 19.898 23.2298C20.2576 23.2298 20.4174 23.0828 20.4174 22.2552V18.4666C20.2975 16.738 19.2987 16.5908 19.2987 15.9655C19.3118 15.8006 19.3943 15.6469 19.5286 15.537C19.6628 15.4271 19.8384 15.3697 20.0178 15.377H24.413C25.0123 15.377 25.212 15.6528 25.212 16.3149V21.4276C25.212 21.9793 25.4717 22.1632 25.6515 22.1632C26.0111 22.1632 26.2908 21.9793 26.9501 21.3724C28.3667 19.782 29.5243 18.0102 30.3863 16.1126C30.4742 15.8843 30.641 15.6888 30.8611 15.5559C31.0811 15.4231 31.3424 15.3602 31.6049 15.377H34.4018C35.2408 15.377 35.4206 15.7632 35.2408 16.3149C34.2232 18.4129 32.964 20.4044 31.4851 22.2552C31.1854 22.6781 31.0655 22.8988 31.4851 23.3954C31.7647 23.7816 32.7437 24.5356 33.4029 25.2528C34.3618 26.1333 35.1581 27.1521 35.7602 28.2689C35.9999 28.9862 35.6004 29.354 34.8013 29.354Z" fill="#434343"/>
</svg>
