<svg width="57" height="33" viewBox="0 0 57 33" fill="none" xmlns="http://www.w3.org/2000/svg">
<path d="M10.0782 32.1472C3.87625 31.5731 0 25.8325 0 20.092C0 13.8272 5.32428 7.03342 14.072 7.71389C15.7827 2.02343 20.8397 0 24.6279 0C29.732 0 32.839 2.05917 35.5322 7.1757C38.6332 6.31462 41.6049 6.88868 43.6723 8.32382C45.5609 9.63489 47.8069 12.0552 48.3238 16.0736C59.1772 16.3606 59.1772 30.712 50.1327 32.1472H10.0782Z" fill="#008FFF"/>
<path d="M34.565 25.3606C35.6777 25.3606 36.5798 24.4406 36.5798 23.3056C36.5798 22.1707 35.6777 21.2506 34.565 21.2506C33.4523 21.2506 32.5503 22.1707 32.5503 23.3056C32.5503 24.4406 33.4523 25.3606 34.565 25.3606Z" fill="white"/>
<path d="M27.6695 14.1487C28.7822 14.1487 29.6842 13.2286 29.6842 12.0937C29.6842 10.9588 28.7822 10.0387 27.6695 10.0387C26.5568 10.0387 25.6548 10.9588 25.6548 12.0937C25.6548 13.2286 26.5568 14.1487 27.6695 14.1487Z" fill="white"/>
<path d="M22.2149 21.1785C23.3276 21.1785 24.2297 20.2584 24.2297 19.1235C24.2297 17.9885 23.3276 17.0685 22.2149 17.0685C21.1022 17.0685 20.2002 17.9885 20.2002 19.1235C20.2002 20.2584 21.1022 21.1785 22.2149 21.1785Z" fill="white"/>
<path d="M22.2146 20.1332C22.7614 20.1332 23.2046 19.6811 23.2046 19.1234C23.2046 18.5657 22.7614 18.1136 22.2146 18.1136C21.6678 18.1136 21.2246 18.5657 21.2246 19.1234C21.2246 19.6811 21.6678 20.1332 22.2146 20.1332Z" fill="#008FFF"/>
<path d="M40.4215 20.8162C41.5342 20.8162 42.4362 19.8961 42.4362 18.7612C42.4362 17.6262 41.5342 16.7062 40.4215 16.7062C39.3088 16.7062 38.4067 17.6262 38.4067 18.7612C38.4067 19.8961 39.3088 20.8162 40.4215 20.8162Z" fill="white"/>
<path d="M40.4214 19.7709C40.9681 19.7709 41.4112 19.3188 41.4112 18.7611C41.4112 18.2034 40.9681 17.7513 40.4214 17.7513C39.8748 17.7513 39.4316 18.2034 39.4316 18.7611C39.4316 19.3188 39.8748 19.7709 40.4214 19.7709Z" fill="#008FFF"/>
<path d="M45.9752 29.8595C47.0879 29.8595 47.9899 28.9395 47.9899 27.8045C47.9899 26.6696 47.0879 25.7495 45.9752 25.7495C44.8625 25.7495 43.9604 26.6696 43.9604 27.8045C43.9604 28.9395 44.8625 29.8595 45.9752 29.8595Z" fill="white"/>
<path d="M45.9751 28.8143C46.5218 28.8143 46.9649 28.3622 46.9649 27.8045C46.9649 27.2468 46.5218 26.7947 45.9751 26.7947C45.4285 26.7947 44.9854 27.2468 44.9854 27.8045C44.9854 28.3622 45.4285 28.8143 45.9751 28.8143Z" fill="#008FFF"/>
<path d="M0.197855 18.3654H8.78562C8.78562 18.3654 11.5759 15.7581 13.2756 14.1635C14.7908 12.742 16.4396 11.3976 19.2984 11.3949L26.1537 11.3884L26.221 12.8262C26.221 12.8262 21.7576 12.8391 19.2136 12.8888C17.0546 12.9311 15.4262 14.1818 13.951 15.4966L10.8368 18.3709H20.391V19.8413H0.0709698C0.0709698 19.8413 0.0608183 19.4421 0.197855 18.3654Z" fill="white" stroke="white" stroke-width="0.102919" stroke-linecap="square"/>
<path d="M0.30957 22.5757H25.5665L27.98 20.243C27.98 20.243 29.8626 18.1798 32.5252 18.1975H38.8427V19.5046C36.0782 19.4889 35.3178 19.5522 32.8736 19.5046C31.6038 19.5709 31.256 19.251 28.8333 21.2514C26.992 23.0215 27.4714 22.6439 27.4714 22.6439L32.951 22.635V24.1132L24.3321 24.1383C24.549 25.3244 26.3579 27.0251 28.6837 27.0251C31.6644 27.0752 44.3112 27.0251 44.3112 27.0251V28.46H28.7747C28.7747 28.46 24.4543 28.7473 22.562 24.1132H0.71053C0.71053 24.1132 0.454504 23.3731 0.30957 22.5757Z" fill="white" stroke="white" stroke-width="0.102919" stroke-linecap="square"/>
</svg>
